<svg xmlns="http://www.w3.org/2000/svg" xmlns:xlink="http://www.w3.org/1999/xlink" viewBox="0 0 2200.52 2277.44"><defs><style>.cls-1{isolation:isolate;}.cls-2{fill:url(#linear-gradient);}.cls-3{fill:url(#linear-gradient-2);}.cls-4{fill:#e5d1d1;}.cls-5{fill:#a88c98;}.cls-6{fill:url(#linear-gradient-3);}.cls-7{fill:url(#linear-gradient-4);}.cls-8{fill:url(#linear-gradient-5);}.cls-9{fill:url(#linear-gradient-6);}.cls-10{fill:url(#linear-gradient-7);}.cls-11{fill:url(#linear-gradient-8);}.cls-12{fill:url(#linear-gradient-9);}.cls-13{fill:url(#linear-gradient-10);}.cls-14{fill:url(#linear-gradient-11);}.cls-15{fill:url(#linear-gradient-12);}.cls-16{fill:url(#linear-gradient-13);}.cls-17{fill:url(#linear-gradient-14);}.cls-18{fill:url(#linear-gradient-15);}.cls-19{fill:url(#linear-gradient-16);}.cls-20{fill:url(#linear-gradient-17);}.cls-21{fill:url(#linear-gradient-18);}.cls-22{fill:url(#linear-gradient-19);}.cls-23,.cls-33{fill:#e29f9f;}.cls-24{fill:url(#linear-gradient-20);}.cls-25{fill:url(#linear-gradient-21);}.cls-26{fill:url(#linear-gradient-22);}.cls-27{fill:url(#linear-gradient-23);}.cls-28{fill:url(#linear-gradient-24);}.cls-29{fill:url(#linear-gradient-25);}.cls-30{fill:url(#linear-gradient-26);}.cls-31{fill:url(#linear-gradient-27);}.cls-32{fill:url(#linear-gradient-28);}.cls-33{mix-blend-mode:multiply;}.cls-34{fill:url(#linear-gradient-29);}.cls-35{fill:url(#linear-gradient-30);}.cls-36{fill:url(#linear-gradient-31);}.cls-37{fill:url(#linear-gradient-32);}.cls-38{fill:url(#linear-gradient-33);}.cls-39{fill:url(#linear-gradient-34);}.cls-40{fill:url(#linear-gradient-35);}.cls-41{fill:url(#linear-gradient-36);}.cls-42{fill:url(#linear-gradient-37);}.cls-43{fill:url(#linear-gradient-38);}.cls-44{fill:url(#linear-gradient-39);}.cls-45{fill:url(#linear-gradient-40);}.cls-46{fill:url(#linear-gradient-41);}.cls-47{fill:url(#linear-gradient-42);}</style><linearGradient id="linear-gradient" x1="892.37" y1="1207.71" x2="892.37" y2="1270.31" gradientTransform="translate(1696.25 324.21) rotate(90)" gradientUnits="userSpaceOnUse"><stop offset="0" stop-color="#fffde9"/><stop offset="1" stop-color="#f5e1cb"/></linearGradient><linearGradient id="linear-gradient-2" x1="915.75" y1="1337.06" x2="915.75" y2="1196.17" gradientTransform="translate(1717.31 341.08) rotate(90)" gradientUnits="userSpaceOnUse"><stop offset="0" stop-color="#deb399"/><stop offset="1" stop-color="#f5e1cb"/></linearGradient><linearGradient id="linear-gradient-3" x1="879.96" y1="1269.5" x2="879.96" y2="1259.45" gradientTransform="translate(-450.43 -42.27)" gradientUnits="userSpaceOnUse"><stop offset="0" stop-color="#e1a9bc"/><stop offset="1" stop-color="#f0d1cb"/></linearGradient><linearGradient id="linear-gradient-4" x1="888.47" y1="1269.5" x2="888.47" y2="1259.45" gradientTransform="translate(-453.86 -35.44)" xlink:href="#linear-gradient-3"/><linearGradient id="linear-gradient-5" x1="896.98" y1="1269.5" x2="896.98" y2="1259.45" gradientTransform="translate(-457.29 -28.61)" xlink:href="#linear-gradient-3"/><linearGradient id="linear-gradient-6" x1="905.49" y1="1269.5" x2="905.49" y2="1259.45" gradientTransform="translate(-460.73 -21.78)" xlink:href="#linear-gradient-3"/><linearGradient id="linear-gradient-7" x1="886.49" y1="1324.6" x2="886.49" y2="1242.34" gradientTransform="translate(1167.7 -538.69) rotate(53.37)" xlink:href="#linear-gradient"/><linearGradient id="linear-gradient-8" x1="880.58" y1="1264.39" x2="880.58" y2="1326.99" gradientTransform="translate(1700.41 360.35) rotate(90)" xlink:href="#linear-gradient"/><linearGradient id="linear-gradient-9" x1="880.58" y1="1327.77" x2="880.58" y2="1342.62" gradientTransform="translate(1708.31 384.23) rotate(90)" gradientUnits="userSpaceOnUse"><stop offset="0" stop-color="#ffe7bb"/><stop offset="1" stop-color="#ffaea2"/></linearGradient><linearGradient id="linear-gradient-10" x1="903.96" y1="1324.09" x2="903.96" y2="1242.38" gradientTransform="translate(1167.7 -538.69) rotate(53.37)" xlink:href="#linear-gradient-2"/><linearGradient id="linear-gradient-11" x1="909.85" y1="1342.07" x2="909.85" y2="1326.26" gradientTransform="translate(1725.78 378.45) rotate(90)" gradientUnits="userSpaceOnUse"><stop offset="0" stop-color="#ea7676"/><stop offset="1" stop-color="#ffaea2"/></linearGradient><linearGradient id="linear-gradient-12" x1="880.91" y1="1329.91" x2="880.91" y2="1345.59" gradientTransform="translate(-508.09 -70.29)" gradientUnits="userSpaceOnUse"><stop offset="0" stop-color="#f0d1cb"/><stop offset="1" stop-color="#e1a9bc"/></linearGradient><linearGradient id="linear-gradient-13" x1="868.1" y1="1329.91" x2="868.1" y2="1345.59" gradientTransform="translate(-502.92 -80.57)" xlink:href="#linear-gradient-12"/><linearGradient id="linear-gradient-14" x1="893.51" y1="1329.91" x2="893.51" y2="1345.59" gradientTransform="translate(-513.17 -60.18)" xlink:href="#linear-gradient-12"/><linearGradient id="linear-gradient-15" x1="1159.04" y1="236.72" x2="1159.04" y2="329.77" gradientTransform="translate(-194.54 1258.02)" xlink:href="#linear-gradient"/><linearGradient id="linear-gradient-16" x1="1178.15" y1="326.36" x2="1178.15" y2="227.25" gradientTransform="translate(-202.25 1273.37)" xlink:href="#linear-gradient-2"/><linearGradient id="linear-gradient-17" x1="1166.63" y1="228.11" x2="1166.63" y2="234.12" gradientTransform="translate(-156.52 1284.76)" xlink:href="#linear-gradient"/><linearGradient id="linear-gradient-18" x1="1177.91" y1="233.9" x2="1177.91" y2="227.5" gradientTransform="translate(-161.07 1293.82)" xlink:href="#linear-gradient-2"/><linearGradient id="linear-gradient-19" x1="1159.33" y1="317.53" x2="1159.33" y2="333.21" gradientTransform="translate(-227.74 1241.63)" xlink:href="#linear-gradient-12"/><linearGradient id="linear-gradient-20" x1="845.97" y1="508.63" x2="845.97" y2="601.68" gradientTransform="translate(-286.47 897.12)" xlink:href="#linear-gradient"/><linearGradient id="linear-gradient-21" x1="865.08" y1="598.26" x2="865.08" y2="499.16" gradientTransform="translate(-294.18 912.46)" xlink:href="#linear-gradient-2"/><linearGradient id="linear-gradient-22" x1="853.56" y1="500.02" x2="853.56" y2="506.03" gradientTransform="translate(-248.45 923.86)" xlink:href="#linear-gradient"/><linearGradient id="linear-gradient-23" x1="864.84" y1="505.81" x2="864.84" y2="499.4" gradientTransform="translate(-253 932.91)" xlink:href="#linear-gradient-2"/><linearGradient id="linear-gradient-24" x1="-48.41" y1="1157.87" x2="-48.41" y2="1203.62" gradientTransform="translate(1412.86 1239.02) rotate(90)" xlink:href="#linear-gradient-9"/><linearGradient id="linear-gradient-25" x1="-48.41" y1="1204.08" x2="-48.41" y2="1211.01" gradientTransform="translate(1418.23 1255.26) rotate(90)" gradientUnits="userSpaceOnUse"><stop offset="0" stop-color="#ffd5fb"/><stop offset="1" stop-color="#c2b8f1"/></linearGradient><linearGradient id="linear-gradient-26" x1="-11.82" y1="1210.76" x2="-11.82" y2="1203.38" gradientTransform="translate(1440.06 1248.03) rotate(90)" gradientUnits="userSpaceOnUse"><stop offset="0" stop-color="#868ed5"/><stop offset="1" stop-color="#c2b8f1"/></linearGradient><linearGradient id="linear-gradient-27" x1="-11.82" y1="1201.94" x2="-11.82" y2="1153.21" gradientTransform="translate(1434.69 1231.79) rotate(90)" xlink:href="#linear-gradient-11"/><linearGradient id="linear-gradient-28" x1="-49.33" y1="1198.26" x2="-49.33" y2="1213.94" gradientTransform="translate(262.17 -0.04)" xlink:href="#linear-gradient-12"/><linearGradient id="linear-gradient-29" x1="1010.12" y1="1374.56" x2="1010.12" y2="1437.16" gradientTransform="translate(1799.46 400.5) rotate(90)" xlink:href="#linear-gradient"/><linearGradient id="linear-gradient-30" x1="1033.5" y1="1503.9" x2="1033.5" y2="1363.01" gradientTransform="translate(1820.52 417.37) rotate(90)" xlink:href="#linear-gradient-2"/><linearGradient id="linear-gradient-31" x1="997.7" y1="1436.34" x2="997.7" y2="1426.3" gradientTransform="translate(-631.81 -15.07)" xlink:href="#linear-gradient-3"/><linearGradient id="linear-gradient-32" x1="1006.21" y1="1436.34" x2="1006.21" y2="1426.3" gradientTransform="translate(-635.25 -8.24)" xlink:href="#linear-gradient-3"/><linearGradient id="linear-gradient-33" x1="1014.72" y1="1436.34" x2="1014.72" y2="1426.3" gradientTransform="translate(-638.68 -1.41)" xlink:href="#linear-gradient-3"/><linearGradient id="linear-gradient-34" x1="1023.24" y1="1436.34" x2="1023.24" y2="1426.3" gradientTransform="translate(-642.11 5.42)" xlink:href="#linear-gradient-3"/><linearGradient id="linear-gradient-35" x1="1004.24" y1="1491.45" x2="1004.24" y2="1409.19" gradientTransform="translate(1167.7 -538.69) rotate(53.37)" xlink:href="#linear-gradient"/><linearGradient id="linear-gradient-36" x1="998.32" y1="1431.23" x2="998.32" y2="1493.83" gradientTransform="translate(1803.61 436.65) rotate(90)" xlink:href="#linear-gradient"/><linearGradient id="linear-gradient-37" x1="998.32" y1="1494.62" x2="998.32" y2="1509.47" gradientTransform="translate(1811.52 460.53) rotate(90)" xlink:href="#linear-gradient-9"/><linearGradient id="linear-gradient-38" x1="1021.71" y1="1490.93" x2="1021.71" y2="1409.23" gradientTransform="translate(1167.7 -538.69) rotate(53.37)" xlink:href="#linear-gradient-2"/><linearGradient id="linear-gradient-39" x1="1027.6" y1="1508.92" x2="1027.6" y2="1493.11" gradientTransform="translate(1828.99 454.75) rotate(90)" xlink:href="#linear-gradient-11"/><linearGradient id="linear-gradient-40" x1="998.66" y1="1496.76" x2="998.66" y2="1512.44" gradientTransform="translate(-689.48 -43.09)" xlink:href="#linear-gradient-12"/><linearGradient id="linear-gradient-41" x1="985.85" y1="1496.76" x2="985.85" y2="1512.44" gradientTransform="translate(-684.31 -53.37)" xlink:href="#linear-gradient-12"/><linearGradient id="linear-gradient-42" x1="1011.25" y1="1496.76" x2="1011.25" y2="1512.44" gradientTransform="translate(-694.56 -32.98)" xlink:href="#linear-gradient-12"/><image id="image" width="4548" height="4664" xlink:href="op1.png"/></defs><g class="cls-1"><g id="圖層_116" data-name="圖層 116"><use transform="scale(0.48)" xlink:href="#image"/><use transform="translate(17.48 38.72) scale(0.48)" xlink:href="#image"/></g><g id="圖層_100" data-name="圖層 100"><rect class="cls-2" x="425.56" y="1199.11" width="64.7" height="34.94" transform="translate(-386.97 213.22) rotate(-36.63)"/><rect class="cls-3" x="374.6" y="1250.91" width="136.72" height="11.83" transform="translate(-413.93 212.25) rotate(-36.63)"/><rect class="cls-4" x="462.44" y="1191.33" width="10.04" height="4.47" transform="translate(-371.35 214.37) rotate(-36.63)"/><rect class="cls-4" x="462.65" y="1191.97" width="10.04" height="3.77" transform="translate(-371.48 214.56) rotate(-36.63)"/><rect class="cls-4" x="467.51" y="1198.16" width="10.04" height="4.48" transform="translate(-374.43 218.75) rotate(-36.63)"/><rect class="cls-4" x="467.72" y="1198.8" width="10.04" height="3.77" transform="translate(-374.55 218.93) rotate(-36.63)"/><rect class="cls-4" x="472.59" y="1204.99" width="10.04" height="4.48" transform="translate(-377.5 223.13) rotate(-36.63)"/><rect class="cls-4" x="472.8" y="1205.63" width="10.04" height="3.77" transform="translate(-377.63 223.31) rotate(-36.63)"/><rect class="cls-4" x="477.67" y="1211.82" width="10.04" height="4.48" transform="translate(-380.57 227.51) rotate(-36.63)"/><rect class="cls-4" x="477.88" y="1212.46" width="10.04" height="3.77" transform="translate(-380.7 227.69) rotate(-36.63)"/><rect class="cls-4" x="452.51" y="1198" width="4.47" height="10.04" transform="translate(1397.31 -179.98) rotate(53.37)"/><rect class="cls-4" x="453.07" y="1198.29" width="3.77" height="10.04" transform="translate(1397.62 -180.04) rotate(53.37)"/><rect class="cls-4" x="457.58" y="1204.83" width="4.48" height="10.04" transform="translate(1404.84 -181.3) rotate(53.37)"/><rect class="cls-4" x="458.15" y="1205.12" width="3.77" height="10.04" transform="matrix(0.6, 0.8, -0.8, 0.6, 1405.15, -181.36)"/><rect class="cls-4" x="462.66" y="1211.66" width="4.48" height="10.04" transform="translate(1412.37 -182.62) rotate(53.37)"/><rect class="cls-4" x="463.22" y="1211.95" width="3.77" height="10.04" transform="matrix(0.6, 0.8, -0.8, 0.6, 1412.68, -182.68)"/><rect class="cls-4" x="467.74" y="1218.49" width="4.48" height="10.04" transform="translate(1419.9 -183.94) rotate(53.37)"/><rect class="cls-4" x="468.3" y="1218.78" width="3.77" height="10.04" transform="translate(1420.21 -184) rotate(53.37)"/><rect class="cls-4" x="437.01" y="1210.24" width="10.04" height="4.47" transform="translate(-387.66 202.94) rotate(-36.63)"/><rect class="cls-4" x="437.22" y="1210.87" width="10.04" height="3.77" transform="translate(-387.78 203.12) rotate(-36.63)"/><rect class="cls-4" x="442.09" y="1217.07" width="10.04" height="4.48" transform="translate(-390.73 207.32) rotate(-36.63)"/><rect class="cls-4" x="442.3" y="1217.7" width="10.04" height="3.77" transform="translate(-390.86 207.5) rotate(-36.63)"/><rect class="cls-4" x="447.17" y="1223.9" width="10.04" height="4.48" transform="translate(-393.8 211.7) rotate(-36.63)"/><rect class="cls-4" x="447.38" y="1224.53" width="10.04" height="3.77" transform="translate(-393.93 211.88) rotate(-36.63)"/><rect class="cls-4" x="452.24" y="1230.73" width="10.04" height="4.48" transform="translate(-396.87 216.07) rotate(-36.63)"/><rect class="cls-4" x="452.45" y="1231.36" width="10.04" height="3.77" transform="translate(-397 216.26) rotate(-36.63)"/><rect class="cls-5" x="427.08" y="1216.91" width="4.47" height="10.04" transform="translate(1402.23 -151.95) rotate(53.37)"/><rect class="cls-6" x="427.64" y="1217.19" width="3.77" height="10.04" transform="translate(1402.54 -152.01) rotate(53.37)"/><rect class="cls-5" x="432.16" y="1223.74" width="4.48" height="10.04" transform="translate(1409.75 -153.27) rotate(53.37)"/><rect class="cls-7" x="432.72" y="1224.02" width="3.77" height="10.04" transform="translate(1410.07 -153.33) rotate(53.37)"/><rect class="cls-5" x="437.24" y="1230.57" width="4.48" height="10.04" transform="translate(1417.28 -154.59) rotate(53.37)"/><rect class="cls-8" x="437.8" y="1230.85" width="3.77" height="10.04" transform="translate(1417.6 -154.65) rotate(53.37)"/><rect class="cls-5" x="442.31" y="1237.4" width="4.48" height="10.04" transform="translate(1424.81 -155.91) rotate(53.37)"/><rect class="cls-9" x="442.88" y="1237.68" width="3.77" height="10.04" transform="translate(1425.12 -155.97) rotate(53.37)"/><polygon class="cls-10" points="691.87 940.11 709.01 936.15 687.73 908.44 668.97 907.65 668.17 908.25 691.87 940.11"/><rect class="cls-11" x="373.04" y="1223.46" width="64.7" height="34.94" transform="matrix(0.8, -0.6, 0.6, 0.8, -411.87, 186.7)"/><rect class="cls-12" x="365.6" y="1247.34" width="15.34" height="34.94" transform="translate(-432.46 172.25) rotate(-36.63)"/><polygon class="cls-13" points="709.01 936.15 690.25 935.37 638.33 973.97 645.39 983.46 709.01 936.15"/><rect class="cls-14" x="383.07" y="1276.5" width="15.34" height="23.62" transform="translate(-443.03 187.31) rotate(-36.63)"/><rect class="cls-5" x="367.18" y="1258.44" width="10.88" height="13.71" transform="translate(1414.16 -88.96) rotate(53.37)"/><rect class="cls-15" x="367.71" y="1258.71" width="10.21" height="13.71" transform="translate(1414.45 -89.01) rotate(53.37)"/><rect class="cls-5" x="362.89" y="1248.2" width="4.23" height="13.71" transform="translate(1402.87 -86.98) rotate(53.37)"/><rect class="cls-16" x="363.35" y="1248.43" width="3.65" height="13.71" transform="translate(1403.12 -87.02) rotate(53.37)"/><rect class="cls-5" x="378.05" y="1268.59" width="4.23" height="13.71" transform="translate(1425.34 -90.92) rotate(53.37)"/><rect class="cls-17" x="378.51" y="1268.82" width="3.65" height="13.71" transform="translate(1425.6 -90.97) rotate(53.37)"/><rect class="cls-4" x="409.92" y="1215.69" width="10.04" height="4.47" transform="translate(-396.26 187.85) rotate(-36.63)"/><rect class="cls-4" x="410.13" y="1216.32" width="10.04" height="3.77" transform="translate(-396.38 188.03) rotate(-36.63)"/><rect class="cls-4" x="415" y="1222.52" width="10.04" height="4.47" transform="translate(-399.33 192.23) rotate(-36.63)"/><rect class="cls-4" x="415.21" y="1223.15" width="10.04" height="3.77" transform="translate(-399.46 192.41) rotate(-36.63)"/><rect class="cls-4" x="420.08" y="1229.35" width="10.04" height="4.48" transform="translate(-402.4 196.61) rotate(-36.63)"/><rect class="cls-4" x="420.29" y="1229.98" width="10.04" height="3.77" transform="matrix(0.8, -0.6, 0.6, 0.8, -402.53, 196.79)"/><rect class="cls-4" x="425.15" y="1236.18" width="10.04" height="4.48" transform="translate(-405.47 200.99) rotate(-36.63)"/><rect class="cls-4" x="425.36" y="1236.81" width="10.04" height="3.77" transform="translate(-405.6 201.17) rotate(-36.63)"/><rect class="cls-4" x="397.21" y="1225.14" width="10.04" height="4.47" transform="translate(-404.41 182.13) rotate(-36.63)"/><rect class="cls-4" x="397.42" y="1225.77" width="10.04" height="3.77" transform="translate(-404.53 182.31) rotate(-36.63)"/><rect class="cls-4" x="402.28" y="1231.97" width="10.04" height="4.47" transform="matrix(0.8, -0.6, 0.6, 0.8, -407.48, 186.51)"/><rect class="cls-4" x="402.49" y="1232.6" width="10.04" height="3.77" transform="translate(-407.61 186.69) rotate(-36.63)"/><rect class="cls-4" x="407.36" y="1238.8" width="10.04" height="4.48" transform="translate(-410.55 190.89) rotate(-36.63)"/><rect class="cls-4" x="407.57" y="1239.43" width="10.04" height="3.77" transform="translate(-410.68 191.07) rotate(-36.63)"/><rect class="cls-4" x="412.44" y="1245.63" width="10.04" height="4.48" transform="translate(-413.62 195.27) rotate(-36.63)"/><rect class="cls-4" x="412.65" y="1246.26" width="10.04" height="3.77" transform="translate(-413.75 195.45) rotate(-36.63)"/><rect class="cls-4" x="384.49" y="1234.59" width="10.04" height="4.47" transform="translate(-412.56 176.41) rotate(-36.63)"/><rect class="cls-4" x="384.7" y="1235.23" width="10.04" height="3.77" transform="translate(-412.69 176.59) rotate(-36.63)"/><rect class="cls-4" x="389.57" y="1241.42" width="10.04" height="4.47" transform="translate(-415.63 180.79) rotate(-36.63)"/><rect class="cls-4" x="389.78" y="1242.06" width="10.04" height="3.77" transform="translate(-415.76 180.97) rotate(-36.63)"/><rect class="cls-4" x="394.65" y="1248.25" width="10.04" height="4.48" transform="translate(-418.7 185.17) rotate(-36.63)"/><rect class="cls-4" x="394.86" y="1248.89" width="10.04" height="3.77" transform="translate(-418.83 185.35) rotate(-36.63)"/><rect class="cls-4" x="399.73" y="1255.08" width="10.04" height="4.48" transform="translate(-421.78 189.55) rotate(-36.63)"/><rect class="cls-4" x="399.94" y="1255.71" width="10.04" height="3.77" transform="translate(-421.9 189.73) rotate(-36.63)"/><rect class="cls-4" x="371.78" y="1244.04" width="10.04" height="4.47" transform="translate(-420.71 170.69) rotate(-36.63)"/><rect class="cls-4" x="371.99" y="1244.68" width="10.04" height="3.77" transform="translate(-420.84 170.88) rotate(-36.63)"/><rect class="cls-4" x="376.86" y="1250.87" width="10.04" height="4.47" transform="translate(-423.78 175.07) rotate(-36.63)"/><rect class="cls-4" x="377.07" y="1251.51" width="10.04" height="3.77" transform="matrix(0.8, -0.6, 0.6, 0.8, -423.91, 175.25)"/><rect class="cls-4" x="381.94" y="1257.7" width="10.04" height="4.48" transform="translate(-426.85 179.45) rotate(-36.63)"/><rect class="cls-4" x="382.15" y="1258.34" width="10.04" height="3.77" transform="translate(-426.98 179.63) rotate(-36.63)"/><rect class="cls-4" x="387.01" y="1264.53" width="10.04" height="4.48" transform="translate(-429.93 183.83) rotate(-36.63)"/><rect class="cls-4" x="387.23" y="1265.17" width="10.04" height="3.77" transform="translate(-430.05 184.01) rotate(-36.63)"/></g><g id="圖層_102" data-name="圖層 102"><rect class="cls-18" x="950.22" y="1492.18" width="28.56" height="96.17" transform="translate(1873.55 -453.03) rotate(53.37)"/><rect class="cls-19" x="971.07" y="1507.53" width="9.67" height="96.17" transform="translate(1890.46 -456) rotate(53.37)"/><rect class="cls-20" x="1001.68" y="1512.71" width="16.86" height="6.22" transform="translate(1872.32 -499.5) rotate(53.37)"/><rect class="cls-21" x="1013.99" y="1521.76" width="5.71" height="6.22" transform="translate(1882.3 -501.25) rotate(53.37)"/><rect class="cls-5" x="927.71" y="1558.01" width="7.4" height="13.71" transform="translate(1879.95 -416.56) rotate(53.37)"/><rect class="cls-22" x="928.18" y="1558.25" width="6.81" height="13.71" transform="translate(1880.21 -416.6) rotate(53.37)"/><rect class="cls-23" x="925.31" y="1526.74" width="73.55" height="3.05" transform="translate(-473.36 575.6) rotate(-36.63)"/><rect class="cls-23" x="925.45" y="1527.17" width="73.55" height="2.57" transform="translate(-473.44 575.72) rotate(-36.63)"/><rect class="cls-23" x="928.67" y="1531.26" width="73.55" height="3.05" transform="translate(-475.4 578.5) rotate(-36.63)"/><rect class="cls-23" x="928.82" y="1531.7" width="73.55" height="2.57" transform="translate(-475.48 578.63) rotate(-36.63)"/><rect class="cls-23" x="932.04" y="1535.79" width="73.55" height="3.05" transform="translate(-477.43 581.41) rotate(-36.63)"/><rect class="cls-23" x="932.18" y="1536.23" width="73.55" height="2.57" transform="translate(-477.52 581.53) rotate(-36.63)"/><rect class="cls-23" x="935.41" y="1540.32" width="73.55" height="3.05" transform="translate(-479.47 584.31) rotate(-36.63)"/><rect class="cls-23" x="935.55" y="1540.76" width="73.55" height="2.57" transform="translate(-479.56 584.44) rotate(-36.63)"/><rect class="cls-23" x="938.78" y="1544.85" width="73.55" height="3.05" transform="translate(-481.51 587.22) rotate(-36.63)"/><rect class="cls-23" x="938.92" y="1545.29" width="73.55" height="2.57" transform="translate(-481.59 587.34) rotate(-36.63)"/></g><g id="圖層_102_拷貝" data-name="圖層 102 拷貝"><rect class="cls-24" x="545.22" y="1403.18" width="28.56" height="96.17" transform="translate(1638.78 -163.92) rotate(53.37)"/><rect class="cls-25" x="566.07" y="1418.53" width="9.67" height="96.17" transform="translate(1655.69 -166.88) rotate(53.37)"/><rect class="cls-26" x="596.68" y="1423.71" width="16.86" height="6.22" transform="translate(1637.55 -210.38) rotate(53.37)"/><rect class="cls-27" x="608.99" y="1432.76" width="5.71" height="6.22" transform="translate(1647.53 -212.13) rotate(53.37)"/><rect class="cls-23" x="520.31" y="1437.74" width="73.55" height="3.05" transform="translate(-500.25 316.37) rotate(-36.63)"/><rect class="cls-23" x="520.45" y="1438.17" width="73.55" height="2.57" transform="translate(-500.33 316.5) rotate(-36.63)"/><rect class="cls-23" x="523.67" y="1442.26" width="73.55" height="3.05" transform="translate(-502.28 319.28) rotate(-36.63)"/><rect class="cls-23" x="523.82" y="1442.7" width="73.55" height="2.57" transform="translate(-502.37 319.4) rotate(-36.63)"/><rect class="cls-23" x="527.04" y="1446.79" width="73.55" height="3.05" transform="translate(-504.32 322.18) rotate(-36.63)"/><rect class="cls-23" x="527.18" y="1447.23" width="73.55" height="2.57" transform="translate(-504.41 322.31) rotate(-36.63)"/><rect class="cls-23" x="530.41" y="1451.32" width="73.55" height="3.05" transform="translate(-506.36 325.09) rotate(-36.63)"/><rect class="cls-23" x="530.55" y="1451.76" width="73.55" height="2.57" transform="translate(-506.44 325.21) rotate(-36.63)"/><rect class="cls-23" x="533.78" y="1455.85" width="73.55" height="3.05" transform="translate(-508.4 327.99) rotate(-36.63)"/><rect class="cls-23" x="533.92" y="1456.29" width="73.55" height="2.57" transform="translate(-508.48 328.11) rotate(-36.63)"/></g><g id="圖層_104" data-name="圖層 104"><rect class="cls-28" x="208.96" y="1163.27" width="47.29" height="54.67" transform="translate(-415.97 73.66) rotate(-36.63)"/><rect class="cls-29" x="207.18" y="1179.52" width="7.16" height="54.67" transform="translate(-429.98 63.84) rotate(-36.63)"/><rect class="cls-30" x="229.01" y="1226.96" width="7.16" height="18.5" transform="translate(-443.19 82.66) rotate(-36.63)"/><rect class="cls-31" x="230.79" y="1210.72" width="47.29" height="18.5" transform="translate(-429.18 92.49) rotate(-36.63)"/><rect class="cls-5" x="207.22" y="1197.05" width="10.88" height="13.71" transform="translate(1300.37 14.65) rotate(53.37)"/><rect class="cls-32" x="207.71" y="1197.3" width="10.25" height="13.71" transform="translate(1300.65 14.6) rotate(53.37)"/><rect class="cls-23" x="229.93" y="1160.41" width="4.71" height="4.48" transform="translate(-399.35 67.95) rotate(-36.63)"/><rect class="cls-23" x="234.56" y="1158.36" width="0.96" height="4.48" transform="translate(-397.59 69.19) rotate(-36.63)"/><rect class="cls-23" x="230.14" y="1161.04" width="4.71" height="3.77" transform="translate(-399.48 68.13) rotate(-36.63)"/><rect class="cls-23" x="234.77" y="1159" width="0.96" height="3.77" transform="translate(-397.71 69.37) rotate(-36.63)"/><rect class="cls-23" x="228.59" y="1161.62" width="1.3" height="3.93" transform="translate(-400.52 66.32) rotate(-36.63)"/><rect class="cls-23" x="230.16" y="1165.04" width="1.3" height="1.33" transform="translate(-401.47 67.67) rotate(-36.63)"/><polygon class="cls-33" points="476.49 862.75 476.16 863.88 478.41 866.91 479.16 866.35 476.49 862.75"/><rect class="cls-23" x="235.24" y="1167.56" width="4.71" height="4.48" transform="translate(-402.57 72.53) rotate(-36.63)"/><rect class="cls-23" x="239.87" y="1165.51" width="0.96" height="4.48" transform="translate(-400.8 73.77) rotate(-36.63)"/><rect class="cls-23" x="235.45" y="1168.19" width="4.71" height="3.77" transform="translate(-402.69 72.71) rotate(-36.63)"/><rect class="cls-23" x="240.08" y="1166.14" width="0.96" height="3.77" transform="translate(-400.93 73.95) rotate(-36.63)"/><rect class="cls-23" x="233.9" y="1168.77" width="1.3" height="3.93" transform="translate(-403.73 70.9) rotate(-36.63)"/><rect class="cls-23" x="235.47" y="1172.18" width="1.3" height="1.33" transform="translate(-404.68 72.25) rotate(-36.63)"/><polygon class="cls-33" points="481.81 869.9 481.47 871.03 483.72 874.05 484.48 873.49 481.81 869.9"/><rect class="cls-23" x="240.56" y="1174.7" width="4.71" height="4.47" transform="translate(-405.78 77.11) rotate(-36.63)"/><rect class="cls-23" x="245.19" y="1172.66" width="0.96" height="4.47" transform="translate(-404.02 78.35) rotate(-36.63)"/><rect class="cls-23" x="240.77" y="1175.34" width="4.71" height="3.77" transform="translate(-405.91 77.29) rotate(-36.63)"/><rect class="cls-23" x="245.4" y="1173.29" width="0.96" height="3.77" transform="translate(-404.14 78.53) rotate(-36.63)"/><rect class="cls-23" x="239.21" y="1175.92" width="1.3" height="3.93" transform="translate(-406.95 75.48) rotate(-36.63)"/><rect class="cls-23" x="240.79" y="1179.33" width="1.3" height="1.33" transform="translate(-407.9 76.84) rotate(-36.63)"/><polygon class="cls-33" points="487.12 877.05 486.78 878.18 489.03 881.2 489.79 880.64 487.12 877.05"/><rect class="cls-23" x="245.87" y="1181.85" width="4.71" height="4.48" transform="translate(-409 81.69) rotate(-36.63)"/><rect class="cls-23" x="250.5" y="1179.8" width="0.96" height="4.48" transform="translate(-407.23 82.93) rotate(-36.63)"/><rect class="cls-23" x="246.08" y="1182.49" width="4.71" height="3.77" transform="translate(-409.12 81.88) rotate(-36.63)"/><rect class="cls-23" x="250.71" y="1180.44" width="0.96" height="3.77" transform="translate(-407.36 83.12) rotate(-36.63)"/><rect class="cls-23" x="244.53" y="1183.06" width="1.3" height="3.93" transform="translate(-410.16 80.06) rotate(-36.63)"/><rect class="cls-23" x="246.1" y="1186.48" width="1.3" height="1.33" transform="translate(-411.11 81.42) rotate(-36.63)"/><polygon class="cls-33" points="492.43 884.2 492.1 885.32 494.35 888.35 495.1 887.79 492.43 884.2"/><rect class="cls-23" x="251.18" y="1189" width="4.71" height="4.48" transform="translate(-412.21 86.28) rotate(-36.63)"/><rect class="cls-23" x="255.82" y="1186.95" width="0.96" height="4.48" transform="translate(-410.45 87.52) rotate(-36.63)"/><rect class="cls-23" x="251.39" y="1189.63" width="4.71" height="3.77" transform="translate(-412.34 86.46) rotate(-36.63)"/><rect class="cls-23" x="256.03" y="1187.59" width="0.96" height="3.77" transform="translate(-410.57 87.7) rotate(-36.63)"/><rect class="cls-23" x="249.84" y="1190.21" width="1.3" height="3.93" transform="translate(-413.38 84.65) rotate(-36.63)"/><rect class="cls-23" x="251.41" y="1193.63" width="1.3" height="1.33" transform="translate(-414.33 86) rotate(-36.63)"/><polygon class="cls-33" points="497.75 891.34 497.41 892.47 499.66 895.5 500.42 894.94 497.75 891.34"/><rect class="cls-23" x="256.5" y="1196.15" width="4.71" height="4.48" transform="translate(-415.43 90.86) rotate(-36.63)"/><rect class="cls-23" x="261.13" y="1194.1" width="0.96" height="4.48" transform="translate(-413.66 92.1) rotate(-36.63)"/><rect class="cls-23" x="256.71" y="1196.78" width="4.71" height="3.77" transform="translate(-415.55 91.04) rotate(-36.63)"/><rect class="cls-23" x="261.34" y="1194.73" width="0.96" height="3.77" transform="translate(-413.79 92.28) rotate(-36.63)"/><rect class="cls-23" x="255.16" y="1197.36" width="1.3" height="3.93" transform="translate(-416.59 89.23) rotate(-36.63)"/><rect class="cls-23" x="256.73" y="1200.77" width="1.3" height="1.33" transform="translate(-417.54 90.58) rotate(-36.63)"/><polygon class="cls-33" points="503.06 898.49 502.73 899.62 504.98 902.64 505.73 902.08 503.06 898.49"/><rect class="cls-23" x="221.46" y="1166.71" width="4.71" height="4.48" transform="translate(-404.78 64.14) rotate(-36.63)"/><rect class="cls-23" x="226.09" y="1164.66" width="0.96" height="4.48" transform="translate(-403.02 65.38) rotate(-36.63)"/><rect class="cls-23" x="221.67" y="1167.34" width="4.71" height="3.77" transform="translate(-404.91 64.32) rotate(-36.63)"/><rect class="cls-23" x="226.3" y="1165.29" width="0.96" height="3.77" transform="translate(-403.14 65.56) rotate(-36.63)"/><rect class="cls-23" x="220.12" y="1167.92" width="1.3" height="3.93" transform="translate(-405.95 62.51) rotate(-36.63)"/><rect class="cls-23" x="221.69" y="1171.33" width="1.3" height="1.33" transform="translate(-406.9 63.86) rotate(-36.63)"/><polygon class="cls-33" points="468.02 869.05 467.69 870.18 469.94 873.21 470.69 872.64 468.02 869.05"/><rect class="cls-23" x="226.77" y="1173.85" width="4.71" height="4.48" transform="translate(-408 68.72) rotate(-36.63)"/><rect class="cls-23" x="231.4" y="1171.81" width="0.96" height="4.48" transform="translate(-406.23 69.96) rotate(-36.63)"/><rect class="cls-23" x="226.98" y="1174.49" width="4.71" height="3.77" transform="translate(-408.13 68.9) rotate(-36.63)"/><rect class="cls-23" x="231.61" y="1172.44" width="0.96" height="3.77" transform="translate(-406.36 70.14) rotate(-36.63)"/><rect class="cls-23" x="225.43" y="1175.07" width="1.3" height="3.93" transform="translate(-409.16 67.09) rotate(-36.63)"/><rect class="cls-23" x="227" y="1178.48" width="1.3" height="1.33" transform="translate(-410.11 68.44) rotate(-36.63)"/><polygon class="cls-33" points="473.33 876.2 473 877.33 475.25 880.35 476 879.79 473.33 876.2"/><rect class="cls-23" x="232.08" y="1181" width="4.71" height="4.47" transform="translate(-411.21 73.3) rotate(-36.63)"/><rect class="cls-23" x="236.72" y="1178.95" width="0.96" height="4.47" transform="translate(-409.45 74.54) rotate(-36.63)"/><rect class="cls-23" x="232.3" y="1181.64" width="4.71" height="3.77" transform="translate(-411.34 73.48) rotate(-36.63)"/><rect class="cls-23" x="236.93" y="1179.59" width="0.96" height="3.77" transform="translate(-409.57 74.72) rotate(-36.63)"/><rect class="cls-23" x="230.74" y="1182.21" width="1.3" height="3.93" transform="translate(-412.38 71.67) rotate(-36.63)"/><rect class="cls-23" x="232.32" y="1185.63" width="1.3" height="1.33" transform="translate(-413.33 73.03) rotate(-36.63)"/><polygon class="cls-33" points="478.65 883.35 478.31 884.48 480.56 887.5 481.32 886.94 478.65 883.35"/><rect class="cls-23" x="237.4" y="1188.15" width="4.71" height="4.48" transform="matrix(0.8, -0.6, 0.6, 0.8, -414.43, 77.88)"/><rect class="cls-23" x="242.03" y="1186.1" width="0.96" height="4.48" transform="translate(-412.66 79.12) rotate(-36.63)"/><rect class="cls-23" x="237.61" y="1188.78" width="4.71" height="3.77" transform="matrix(0.8, -0.6, 0.6, 0.8, -414.56, 78.07)"/><rect class="cls-23" x="242.24" y="1186.74" width="0.96" height="3.77" transform="translate(-412.79 79.31) rotate(-36.63)"/><rect class="cls-23" x="236.06" y="1189.36" width="1.3" height="3.93" transform="translate(-415.59 76.25) rotate(-36.63)"/><rect class="cls-23" x="237.63" y="1192.78" width="1.3" height="1.33" transform="translate(-416.54 77.61) rotate(-36.63)"/><polygon class="cls-33" points="483.96 890.5 483.63 891.62 485.88 894.65 486.63 894.09 483.96 890.5"/><rect class="cls-23" x="242.71" y="1195.3" width="4.71" height="4.48" transform="translate(-417.64 82.47) rotate(-36.63)"/><rect class="cls-23" x="247.35" y="1193.25" width="0.96" height="4.48" transform="translate(-415.88 83.71) rotate(-36.63)"/><rect class="cls-23" x="242.92" y="1195.93" width="4.71" height="3.77" transform="translate(-417.77 82.65) rotate(-36.63)"/><rect class="cls-23" x="247.56" y="1193.88" width="0.96" height="3.77" transform="translate(-416 83.89) rotate(-36.63)"/><rect class="cls-23" x="241.37" y="1196.51" width="1.3" height="3.93" transform="translate(-418.81 80.84) rotate(-36.63)"/><rect class="cls-23" x="242.94" y="1199.92" width="1.3" height="1.33" transform="translate(-419.76 82.19) rotate(-36.63)"/><polygon class="cls-33" points="489.28 897.64 488.94 898.77 491.19 901.79 491.95 901.23 489.28 897.64"/><rect class="cls-23" x="248.03" y="1202.44" width="4.71" height="4.48" transform="translate(-420.86 87.05) rotate(-36.63)"/><rect class="cls-23" x="252.66" y="1200.4" width="0.96" height="4.48" transform="translate(-419.09 88.29) rotate(-36.63)"/><rect class="cls-23" x="248.24" y="1203.08" width="4.71" height="3.77" transform="translate(-420.98 87.23) rotate(-36.63)"/><rect class="cls-23" x="252.87" y="1201.03" width="0.96" height="3.77" transform="matrix(0.8, -0.6, 0.6, 0.8, -419.22, 88.47)"/><rect class="cls-23" x="246.69" y="1203.66" width="1.3" height="3.93" transform="translate(-422.02 85.42) rotate(-36.63)"/><rect class="cls-23" x="248.26" y="1207.07" width="1.3" height="1.33" transform="translate(-422.97 86.77) rotate(-36.63)"/><polygon class="cls-33" points="494.59 904.79 494.26 905.92 496.5 908.94 497.26 908.38 494.59 904.79"/><rect class="cls-23" x="212.99" y="1173.01" width="4.71" height="4.48" transform="translate(-410.21 60.33) rotate(-36.63)"/><rect class="cls-23" x="217.62" y="1170.96" width="0.96" height="4.48" transform="translate(-408.45 61.57) rotate(-36.63)"/><rect class="cls-23" x="213.2" y="1173.64" width="4.71" height="3.77" transform="translate(-410.34 60.51) rotate(-36.63)"/><rect class="cls-23" x="217.83" y="1171.59" width="0.96" height="3.77" transform="translate(-408.57 61.75) rotate(-36.63)"/><rect class="cls-23" x="211.64" y="1174.22" width="1.3" height="3.93" transform="translate(-411.38 58.7) rotate(-36.63)"/><rect class="cls-23" x="213.22" y="1177.63" width="1.3" height="1.33" transform="translate(-412.33 60.05) rotate(-36.63)"/><polygon class="cls-33" points="459.55 875.35 459.21 876.48 461.46 879.5 462.22 878.94 459.55 875.35"/><rect class="cls-23" x="218.3" y="1180.15" width="4.71" height="4.48" transform="translate(-413.43 64.91) rotate(-36.63)"/><rect class="cls-23" x="222.93" y="1178.1" width="0.96" height="4.48" transform="translate(-411.66 66.15) rotate(-36.63)"/><rect class="cls-23" x="218.51" y="1180.79" width="4.71" height="3.77" transform="translate(-413.56 65.09) rotate(-36.63)"/><rect class="cls-23" x="223.14" y="1178.74" width="0.96" height="3.77" transform="translate(-411.79 66.33) rotate(-36.63)"/><rect class="cls-23" x="216.96" y="1181.37" width="1.3" height="3.93" transform="translate(-414.59 63.28) rotate(-36.63)"/><rect class="cls-23" x="218.53" y="1184.78" width="1.3" height="1.33" transform="translate(-415.54 64.63) rotate(-36.63)"/><polygon class="cls-33" points="464.86 882.5 464.53 883.63 466.78 886.65 467.53 886.09 464.86 882.5"/><rect class="cls-23" x="223.61" y="1187.3" width="4.71" height="4.47" transform="translate(-416.64 69.49) rotate(-36.63)"/><rect class="cls-23" x="228.25" y="1185.25" width="0.96" height="4.47" transform="translate(-414.88 70.73) rotate(-36.63)"/><rect class="cls-23" x="223.82" y="1187.94" width="4.71" height="3.77" transform="translate(-416.77 69.67) rotate(-36.63)"/><rect class="cls-23" x="228.46" y="1185.89" width="0.96" height="3.77" transform="translate(-415 70.91) rotate(-36.63)"/><rect class="cls-23" x="222.27" y="1188.51" width="1.3" height="3.93" transform="translate(-417.81 67.86) rotate(-36.63)"/><rect class="cls-23" x="223.84" y="1191.93" width="1.3" height="1.33" transform="translate(-418.76 69.22) rotate(-36.63)"/><polygon class="cls-33" points="470.18 889.65 469.84 890.77 472.09 893.8 472.85 893.24 470.18 889.65"/><rect class="cls-23" x="228.93" y="1194.45" width="4.71" height="4.48" transform="translate(-419.86 74.07) rotate(-36.63)"/><rect class="cls-23" x="233.56" y="1192.4" width="0.96" height="4.48" transform="translate(-418.09 75.31) rotate(-36.63)"/><rect class="cls-23" x="229.14" y="1195.08" width="4.71" height="3.77" transform="translate(-419.99 74.26) rotate(-36.63)"/><rect class="cls-23" x="233.77" y="1193.03" width="0.96" height="3.77" transform="translate(-418.22 75.49) rotate(-36.63)"/><rect class="cls-23" x="227.59" y="1195.66" width="1.3" height="3.93" transform="translate(-421.02 72.44) rotate(-36.63)"/><rect class="cls-23" x="229.16" y="1199.07" width="1.3" height="1.33" transform="translate(-421.97 73.8) rotate(-36.63)"/><polygon class="cls-33" points="475.49 896.79 475.16 897.92 477.41 900.95 478.16 900.38 475.49 896.79"/><rect class="cls-23" x="234.24" y="1201.6" width="4.71" height="4.48" transform="translate(-423.07 78.66) rotate(-36.63)"/><rect class="cls-23" x="238.88" y="1199.55" width="0.96" height="4.48" transform="translate(-421.31 79.9) rotate(-36.63)"/><rect class="cls-23" x="234.45" y="1202.23" width="4.71" height="3.77" transform="translate(-423.2 78.84) rotate(-36.63)"/><rect class="cls-23" x="239.09" y="1200.18" width="0.96" height="3.77" transform="translate(-421.43 80.08) rotate(-36.63)"/><rect class="cls-23" x="232.9" y="1202.81" width="1.3" height="3.93" transform="translate(-424.24 77.03) rotate(-36.63)"/><rect class="cls-23" x="234.47" y="1206.22" width="1.3" height="1.33" transform="translate(-425.19 78.38) rotate(-36.63)"/><polygon class="cls-33" points="480.81 903.94 480.47 905.07 482.72 908.09 483.48 907.53 480.81 903.94"/><rect class="cls-23" x="239.56" y="1208.74" width="4.71" height="4.48" transform="matrix(0.8, -0.6, 0.6, 0.8, -426.29, 83.24)"/><rect class="cls-23" x="244.19" y="1206.69" width="0.96" height="4.48" transform="translate(-424.52 84.48) rotate(-36.63)"/><rect class="cls-23" x="239.77" y="1209.38" width="4.71" height="3.77" transform="matrix(0.8, -0.6, 0.6, 0.8, -426.42, 83.42)"/><rect class="cls-23" x="244.4" y="1207.33" width="0.96" height="3.77" transform="translate(-424.65 84.66) rotate(-36.63)"/><rect class="cls-23" x="238.22" y="1209.95" width="1.3" height="3.93" transform="translate(-427.45 81.61) rotate(-36.63)"/><rect class="cls-23" x="239.79" y="1213.37" width="1.3" height="1.33" transform="translate(-428.4 82.96) rotate(-36.63)"/><polygon class="cls-33" points="486.12 911.09 485.79 912.22 488.04 915.24 488.79 914.68 486.12 911.09"/></g><g id="圖層_105" data-name="圖層 105"><rect class="cls-34" x="361.92" y="1393.15" width="64.7" height="34.94" transform="matrix(0.8, -0.6, 0.6, 0.8, -515.32, 213.58)"/><rect class="cls-35" x="310.96" y="1444.96" width="136.72" height="11.83" transform="translate(-542.28 212.61) rotate(-36.63)"/><rect class="cls-4" x="398.8" y="1385.38" width="10.04" height="4.47" transform="translate(-499.7 214.73) rotate(-36.63)"/><rect class="cls-4" x="399.01" y="1386.01" width="10.04" height="3.77" transform="translate(-499.83 214.91) rotate(-36.63)"/><rect class="cls-4" x="403.88" y="1392.21" width="10.04" height="4.48" transform="translate(-502.77 219.11) rotate(-36.63)"/><rect class="cls-4" x="404.09" y="1392.84" width="10.04" height="3.77" transform="translate(-502.9 219.29) rotate(-36.63)"/><rect class="cls-4" x="408.95" y="1399.04" width="10.04" height="4.48" transform="translate(-505.85 223.49) rotate(-36.63)"/><rect class="cls-4" x="409.16" y="1399.67" width="10.04" height="3.77" transform="translate(-505.97 223.67) rotate(-36.63)"/><rect class="cls-4" x="414.03" y="1405.87" width="10.04" height="4.48" transform="translate(-508.92 227.87) rotate(-36.63)"/><rect class="cls-4" x="414.24" y="1406.5" width="10.04" height="3.77" transform="translate(-509.05 228.05) rotate(-36.63)"/><rect class="cls-4" x="388.87" y="1392.05" width="4.47" height="10.04" transform="translate(1527.36 -50.65) rotate(53.37)"/><rect class="cls-4" x="389.43" y="1392.33" width="3.77" height="10.04" transform="translate(1527.67 -50.7) rotate(53.37)"/><rect class="cls-4" x="393.95" y="1398.87" width="4.48" height="10.04" transform="translate(1534.89 -51.97) rotate(53.37)"/><rect class="cls-4" x="394.51" y="1399.16" width="3.77" height="10.04" transform="matrix(0.6, 0.8, -0.8, 0.6, 1535.2, -52.02)"/><rect class="cls-4" x="399.02" y="1405.7" width="4.48" height="10.04" transform="translate(1542.42 -53.29) rotate(53.37)"/><rect class="cls-4" x="399.59" y="1405.99" width="3.77" height="10.04" transform="translate(1542.73 -53.34) rotate(53.37)"/><rect class="cls-4" x="404.1" y="1412.53" width="4.48" height="10.04" transform="translate(1549.95 -54.61) rotate(53.37)"/><rect class="cls-4" x="404.66" y="1412.82" width="3.77" height="10.04" transform="translate(1550.26 -54.66) rotate(53.37)"/><rect class="cls-4" x="373.37" y="1404.28" width="10.04" height="4.47" transform="translate(-516 203.29) rotate(-36.63)"/><rect class="cls-4" x="373.58" y="1404.92" width="10.04" height="3.77" transform="translate(-516.13 203.47) rotate(-36.63)"/><rect class="cls-4" x="378.45" y="1411.11" width="10.04" height="4.48" transform="matrix(0.8, -0.6, 0.6, 0.8, -519.08, 207.67)"/><rect class="cls-4" x="378.66" y="1411.75" width="10.04" height="3.77" transform="translate(-519.2 207.85) rotate(-36.63)"/><rect class="cls-4" x="383.53" y="1417.94" width="10.04" height="4.48" transform="translate(-522.15 212.05) rotate(-36.63)"/><rect class="cls-4" x="383.74" y="1418.58" width="10.04" height="3.77" transform="translate(-522.27 212.23) rotate(-36.63)"/><rect class="cls-4" x="388.61" y="1424.77" width="10.04" height="4.48" transform="translate(-525.22 216.43) rotate(-36.63)"/><rect class="cls-4" x="388.82" y="1425.41" width="10.04" height="3.77" transform="translate(-525.35 216.61) rotate(-36.63)"/><rect class="cls-5" x="363.44" y="1410.95" width="4.47" height="10.04" transform="translate(1532.28 -22.62) rotate(53.37)"/><rect class="cls-36" x="364" y="1411.23" width="3.77" height="10.04" transform="translate(1532.59 -22.67) rotate(53.37)"/><rect class="cls-5" x="368.52" y="1417.78" width="4.48" height="10.04" transform="translate(1539.8 -23.94) rotate(53.37)"/><rect class="cls-37" x="369.08" y="1418.06" width="3.77" height="10.04" transform="translate(1540.12 -23.99) rotate(53.37)"/><rect class="cls-5" x="373.6" y="1424.61" width="4.48" height="10.04" transform="translate(1547.33 -25.26) rotate(53.37)"/><rect class="cls-38" x="374.16" y="1424.89" width="3.77" height="10.04" transform="matrix(0.6, 0.8, -0.8, 0.6, 1547.65, -25.31)"/><rect class="cls-5" x="378.68" y="1431.44" width="4.48" height="10.04" transform="translate(1554.86 -26.58) rotate(53.37)"/><rect class="cls-39" x="379.24" y="1431.72" width="3.77" height="10.04" transform="translate(1555.17 -26.63) rotate(53.37)"/><polygon class="cls-40" points="628.23 1134.15 645.38 1130.2 624.09 1102.48 605.33 1101.69 604.54 1102.29 628.23 1134.15"/><rect class="cls-41" x="309.4" y="1417.5" width="64.7" height="34.94" transform="matrix(0.8, -0.6, 0.6, 0.8, -540.22, 187.05)"/><rect class="cls-42" x="301.96" y="1441.38" width="15.34" height="34.94" transform="translate(-560.81 172.6) rotate(-36.63)"/><polygon class="cls-43" points="645.38 1130.2 626.61 1129.41 574.69 1168.02 581.75 1177.5 645.38 1130.2"/><rect class="cls-44" x="319.43" y="1470.54" width="15.34" height="23.62" transform="translate(-571.38 187.67) rotate(-36.63)"/><rect class="cls-5" x="303.54" y="1452.48" width="10.88" height="13.71" transform="translate(1544.21 40.37) rotate(53.37)"/><rect class="cls-45" x="304.07" y="1452.75" width="10.21" height="13.71" transform="translate(1544.5 40.32) rotate(53.37)"/><rect class="cls-5" x="299.25" y="1442.24" width="4.23" height="13.71" transform="translate(1532.92 42.35) rotate(53.37)"/><rect class="cls-46" x="299.71" y="1442.47" width="3.65" height="13.71" transform="translate(1533.17 42.31) rotate(53.37)"/><rect class="cls-5" x="314.41" y="1462.63" width="4.23" height="13.71" transform="translate(1555.39 38.41) rotate(53.37)"/><rect class="cls-47" x="314.87" y="1462.86" width="3.65" height="13.71" transform="translate(1555.65 38.37) rotate(53.37)"/><rect class="cls-4" x="346.28" y="1409.73" width="10.04" height="4.47" transform="matrix(0.8, -0.6, 0.6, 0.8, -524.6, 188.2)"/><rect class="cls-4" x="346.49" y="1410.36" width="10.04" height="3.77" transform="translate(-524.73 188.39) rotate(-36.63)"/><rect class="cls-4" x="351.36" y="1416.56" width="10.04" height="4.47" transform="translate(-527.68 192.58) rotate(-36.63)"/><rect class="cls-4" x="351.57" y="1417.19" width="10.04" height="3.77" transform="translate(-527.8 192.76) rotate(-36.63)"/><rect class="cls-4" x="356.44" y="1423.39" width="10.04" height="4.48" transform="translate(-530.75 196.96) rotate(-36.63)"/><rect class="cls-4" x="356.65" y="1424.02" width="10.04" height="3.77" transform="translate(-530.88 197.14) rotate(-36.63)"/><rect class="cls-4" x="361.52" y="1430.22" width="10.04" height="4.48" transform="translate(-533.82 201.34) rotate(-36.63)"/><rect class="cls-4" x="361.73" y="1430.85" width="10.04" height="3.77" transform="translate(-533.95 201.52) rotate(-36.63)"/><rect class="cls-4" x="333.57" y="1419.18" width="10.04" height="4.47" transform="translate(-532.75 182.49) rotate(-36.63)"/><rect class="cls-4" x="333.78" y="1419.82" width="10.04" height="3.77" transform="translate(-532.88 182.67) rotate(-36.63)"/><rect class="cls-4" x="338.65" y="1426.01" width="10.04" height="4.47" transform="matrix(0.8, -0.6, 0.6, 0.8, -535.83, 186.86)"/><rect class="cls-4" x="338.86" y="1426.65" width="10.04" height="3.77" transform="translate(-535.95 187.05) rotate(-36.63)"/><rect class="cls-4" x="343.72" y="1432.84" width="10.04" height="4.48" transform="translate(-538.9 191.24) rotate(-36.63)"/><rect class="cls-4" x="343.93" y="1433.48" width="10.04" height="3.77" transform="translate(-539.03 191.42) rotate(-36.63)"/><rect class="cls-4" x="348.8" y="1439.67" width="10.04" height="4.48" transform="translate(-541.97 195.62) rotate(-36.63)"/><rect class="cls-4" x="349.01" y="1440.31" width="10.04" height="3.77" transform="translate(-542.1 195.8) rotate(-36.63)"/><rect class="cls-4" x="320.86" y="1428.63" width="10.04" height="4.47" transform="translate(-540.91 176.77) rotate(-36.63)"/><rect class="cls-4" x="321.07" y="1429.27" width="10.04" height="3.77" transform="translate(-541.03 176.95) rotate(-36.63)"/><rect class="cls-4" x="325.93" y="1435.46" width="10.04" height="4.47" transform="translate(-543.98 181.15) rotate(-36.63)"/><rect class="cls-4" x="326.14" y="1436.1" width="10.04" height="3.77" transform="translate(-544.1 181.33) rotate(-36.63)"/><rect class="cls-4" x="331.01" y="1442.29" width="10.04" height="4.48" transform="translate(-547.05 185.52) rotate(-36.63)"/><rect class="cls-4" x="331.22" y="1442.93" width="10.04" height="3.77" transform="translate(-547.18 185.71) rotate(-36.63)"/><rect class="cls-4" x="336.09" y="1449.12" width="10.04" height="4.48" transform="translate(-550.12 189.9) rotate(-36.63)"/><rect class="cls-4" x="336.3" y="1449.76" width="10.04" height="3.77" transform="translate(-550.25 190.08) rotate(-36.63)"/><rect class="cls-4" x="308.14" y="1438.08" width="10.04" height="4.47" transform="translate(-549.06 171.05) rotate(-36.63)"/><rect class="cls-4" x="308.35" y="1438.72" width="10.04" height="3.77" transform="translate(-549.18 171.23) rotate(-36.63)"/><rect class="cls-4" x="313.22" y="1444.91" width="10.04" height="4.47" transform="translate(-552.13 175.43) rotate(-36.63)"/><rect class="cls-4" x="313.43" y="1445.55" width="10.04" height="3.77" transform="translate(-552.26 175.61) rotate(-36.63)"/><rect class="cls-4" x="318.3" y="1451.74" width="10.04" height="4.48" transform="translate(-555.2 179.81) rotate(-36.63)"/><rect class="cls-4" x="318.51" y="1452.38" width="10.04" height="3.77" transform="translate(-555.33 179.99) rotate(-36.63)"/><rect class="cls-4" x="323.38" y="1458.57" width="10.04" height="4.48" transform="translate(-558.27 184.19) rotate(-36.63)"/><rect class="cls-4" x="323.59" y="1459.21" width="10.04" height="3.77" transform="translate(-558.4 184.37) rotate(-36.63)"/></g></g></svg>